<svg xmlns="http://www.w3.org/2000/svg" version="1.1" xmlns:xlink="http://www.w3.org/1999/xlink" width="1000" height="1000"><g clip-path="url(#SvgjsClipPath1026)"><rect width="1000" height="1000" fill="#ffffff"></rect><g transform="matrix(1.09375,0,0,1.09375,150,150)"><svg xmlns="http://www.w3.org/2000/svg" version="1.1" xmlns:xlink="http://www.w3.org/1999/xlink" width="640" height="640"><svg xmlns="http://www.w3.org/2000/svg" viewBox="0 0 640 640"><!--!Font Awesome Free 7.0.1 by @fontawesome - https://fontawesome.com License - https://fontawesome.com/license/free Copyright 2025 Fonticons, Inc.--><path d="M128 160C128 107 171 64 224 64L416 64C469 64 512 107 512 160L512 416C512 456.1 487.4 490.5 452.5 504.8L506.4 568.5C515 578.6 513.7 593.8 503.6 602.3C493.5 610.8 478.3 609.6 469.8 599.5L395.8 512L244.5 512L170.5 599.5C161.9 609.6 146.8 610.9 136.7 602.3C126.6 593.7 125.3 578.6 133.9 568.5L187.8 504.8C152.6 490.5 128 456.1 128 416L128 160zM192 192L192 288C192 305.7 206.3 320 224 320L416 320C433.7 320 448 305.7 448 288L448 192C448 174.3 433.7 160 416 160L224 160C206.3 160 192 174.3 192 192zM320 448C337.7 448 352 433.7 352 416C352 398.3 337.7 384 320 384C302.3 384 288 398.3 288 416C288 433.7 302.3 448 320 448z"></path></svg></svg></g></g><defs><clipPath id="SvgjsClipPath1026"><rect width="1000" height="1000" x="0" y="0" rx="350" ry="350"></rect></clipPath></defs></svg>