<?xml version="1.0" standalone="no"?>
<!DOCTYPE svg PUBLIC "-//W3C//DTD SVG 20010904//EN"
 "http://www.w3.org/TR/2001/REC-SVG-20010904/DTD/svg10.dtd">
<svg version="1.0" xmlns="http://www.w3.org/2000/svg"
 width="1552.862272pt" height="690.509881pt" viewBox="0 0 1552.862272 690.509881"
 preserveAspectRatio="xMidYMid meet">

<g transform="translate(-224.000000,1312.644168) scale(0.100000,-0.100000)"
fill="#000000" stroke="none">
<path d="M9845 13121 c-123 -22 -175 -106 -175 -288 0 -56 -2 -64 -22 -72 -13
-5 -97 -14 -188 -20 -162 -11 -233 -17 -555 -46 -88 -8 -218 -19 -290 -25 -71
-5 -184 -15 -250 -21 -66 -6 -172 -14 -235 -19 -63 -5 -196 -16 -295 -24 -99
-9 -236 -20 -305 -26 -69 -5 -141 -12 -160 -15 -19 -3 -87 -10 -150 -15 -63
-6 -191 -17 -285 -26 -93 -8 -219 -19 -280 -24 -387 -32 -494 -41 -615 -50
-74 -5 -155 -12 -180 -15 -25 -3 -108 -10 -185 -15 -77 -5 -221 -17 -320 -25
-99 -9 -236 -20 -305 -25 -69 -4 -177 -13 -240 -19 -150 -14 -320 -28 -560
-46 -307 -24 -458 -61 -682 -168 -205 -97 -328 -182 -496 -342 -348 -331 -531
-743 -581 -1305 -6 -66 -11 -546 -13 -1135 -2 -1096 -3 -1075 49 -1235 69
-208 160 -348 342 -530 75 -74 178 -179 230 -233 144 -149 261 -219 441 -262
49 -12 161 -18 445 -25 209 -6 385 -12 391 -14 6 -2 14 -28 18 -58 17 -123 85
-245 203 -362 41 -41 72 -79 68 -85 -4 -8 -344 -11 -1148 -11 -661 0 -1159 -4
-1182 -10 -24 -5 -51 -21 -67 -40 -25 -27 -28 -38 -28 -101 0 -74 13 -110 50
-144 22 -20 41 -20 7710 -23 7642 -2 7687 -2 7712 18 82 64 73 229 -14 277
-31 17 -95 18 -1211 21 -648 1 -1177 6 -1175 11 2 4 45 45 96 91 147 132 195
208 249 395 l9 30 379 0 c433 0 450 2 600 77 118 59 251 182 320 295 l42 68
319 5 c354 6 355 6 391 73 14 27 18 69 21 264 2 128 1 253 -2 278 -13 82 -66
112 -226 128 l-25 2 -6 280 c-3 165 -11 307 -19 345 -16 81 -67 294 -81 335
-5 17 -36 111 -68 210 -152 467 -394 1013 -592 1338 -16 26 -29 49 -29 51 0 7
-178 294 -232 374 -58 87 -202 277 -322 427 -486 607 -959 978 -1616 1268
-143 63 -296 116 -455 157 -237 61 -265 65 -495 63 -118 0 -267 -6 -330 -12
-63 -6 -158 -16 -210 -21 -254 -26 -239 -27 -316 16 l-69 39 -1380 1 c-759 1
-1398 -1 -1420 -5z m3545 -541 c103 -17 257 -65 390 -123 202 -87 441 -243
686 -449 163 -137 475 -470 709 -758 33 -41 128 -155 210 -255 83 -99 195
-238 250 -310 245 -321 327 -394 530 -470 115 -43 285 -75 402 -75 49 0 58 -3
85 -32 16 -18 47 -66 68 -108 41 -82 163 -372 203 -485 14 -38 39 -107 55
-151 122 -329 182 -623 182 -895 0 -183 -15 -253 -55 -263 -13 -3 -2835 -5
-6270 -4 -5496 1 -6247 3 -6258 16 -9 12 -12 254 -12 1081 0 586 2 1264 5
1506 5 391 8 444 23 472 28 52 58 61 246 72 108 7 115 9 137 35 34 39 33 104
-2 145 -39 47 -79 53 -275 41 -208 -12 -236 -24 -300 -123 -80 -124 -74 23
-74 -1689 0 -1230 -3 -1529 -13 -1540 -10 -10 -154 -12 -710 -11 l-696 1 -23
29 c-13 15 -35 57 -49 93 l-26 65 7 959 c7 1097 6 1082 91 1421 25 96 64 202
116 315 61 129 92 180 185 297 162 202 373 352 608 431 158 52 173 54 755 97
356 26 466 34 665 50 105 8 253 19 330 25 77 6 192 16 255 21 63 6 169 14 235
19 349 25 524 39 761 60 61 6 165 15 230 20 66 5 200 16 299 25 99 9 239 20
310 25 72 5 148 12 170 15 22 3 103 10 180 15 77 6 223 17 325 26 102 8 239
19 305 24 66 5 203 16 305 25 102 8 248 20 325 25 77 5 158 12 180 15 22 3
112 10 200 15 88 5 257 17 375 25 118 8 280 20 360 25 80 6 224 17 320 25 96
8 245 19 330 25 85 5 211 14 280 20 230 18 384 29 490 35 58 3 155 10 215 15
61 5 189 17 285 25 96 8 220 20 275 25 526 51 690 59 815 40z m-6765 -5595
c11 -44 26 -96 34 -115 25 -62 98 -156 185 -237 47 -44 83 -83 79 -86 -3 -4
-334 -7 -735 -7 -707 0 -728 1 -728 19 0 10 10 26 23 34 36 23 152 146 192
202 31 44 95 188 95 214 0 5 4 21 10 35 l10 26 407 -2 408 -3 20 -80z m4803
72 c6 -7 15 -47 20 -89 10 -77 26 -112 72 -153 22 -19 34 -20 364 -17 313 3
343 5 371 22 16 10 36 29 43 41 19 31 42 109 42 145 0 37 16 54 50 54 32 0 50
-17 50 -47 0 -100 142 -314 272 -409 26 -20 48 -42 48 -50 0 -21 -5048 -21
-5056 -1 -3 8 34 53 89 109 106 107 163 204 187 318 7 36 17 71 23 78 14 18
3410 18 3425 -1z m2827 -44 c59 -199 110 -279 259 -411 20 -19 35 -39 33 -45
-3 -9 -132 -13 -506 -15 -430 -2 -502 0 -507 12 -4 9 21 40 66 83 115 108 188
230 210 353 6 36 17 68 23 72 7 4 100 8 209 8 l196 0 17 -57z"/>
<path d="M12960 11552 c-72 -35 -70 -20 -70 -652 0 -543 1 -566 20 -597 58
-96 241 -96 288 0 10 20 13 151 13 592 0 640 2 617 -75 655 -52 25 -129 26
-176 2z"/>
<path d="M14410 11527 c-14 -7 -33 -28 -42 -47 -16 -32 -18 -81 -18 -583 0
-603 -2 -584 62 -606 38 -14 867 -15 902 -1 14 5 37 27 52 49 l26 40 -17 53
c-21 62 -72 142 -187 290 -192 246 -280 360 -396 512 -141 184 -188 235 -253
277 -49 31 -89 36 -129 16z"/>
<path d="M8922 11388 c-46 -5 -73 -14 -99 -34 -66 -50 -65 -45 -56 -553 8
-455 8 -456 31 -489 49 -68 -10 -64 979 -64 l894 0 39 26 c73 48 74 56 68 549
-5 388 -7 437 -23 471 -24 50 -72 85 -126 91 -66 9 -1634 11 -1707 3z"/>
<path d="M13400 9999 c-74 -16 -70 31 -70 -751 l0 -700 29 -29 c42 -41 106
-41 150 0 l31 29 0 704 0 705 -22 20 c-28 25 -71 33 -118 22z"/>
</g>
</svg>
